HIERARCHY
ROOT Hips
{
  OFFSET 138.09 39.9751 136.08
  CHANNELS 6 Xposition Yposition Zposition Zrotation Xrotation Yrotation
  JOINT LeftHip
  {
    OFFSET 3.43 0 0
    CHANNELS 6 Xposition Yposition Zposition Zrotation Xrotation Yrotation
    JOINT LeftKnee
    {
      OFFSET 0 -18.47 0
      CHANNELS 6 Xposition Yposition Zposition Zrotation Xrotation Yrotation
      JOINT LeftAnkle
      {
        OFFSET 0 -17.95 0
        CHANNELS 6 Xposition Yposition Zposition Zrotation Xrotation Yrotation
        End Site
        {
          OFFSET 0 -3.12 0
        }
      }
    }
  }
  JOINT RightHip
  {
    OFFSET -3.43 0 0
    CHANNELS 6 Xposition Yposition Zposition Zrotation Xrotation Yrotation
    JOINT RightKnee
    {
      OFFSET 0 -18.47 0
      CHANNELS 6 Xposition Yposition Zposition Zrotation Xrotation Yrotation
      JOINT RightAnkle
      {
        OFFSET 0 -17.95 0
        CHANNELS 6 Xposition Yposition Zposition Zrotation Xrotation Yrotation
        End Site
        {
          OFFSET 0 -3.12 0
        }
      }
    }
  }
  JOINT Chest
  {
    OFFSET 0 4.57 0
    CHANNELS 6 Xposition Yposition Zposition Zrotation Xrotation Yrotation
    JOINT CS_BVH
    {
      OFFSET 0 6.57 0
      CHANNELS 6 Xposition Yposition Zposition Zrotation Xrotation Yrotation
      JOINT LeftCollar
      {
        OFFSET 1.06 4.19 1.76
        CHANNELS 6 Xposition Yposition Zposition Zrotation Xrotation Yrotation
        JOINT LeftShoulder
        {
          OFFSET 5.81 0 0
          CHANNELS 6 Xposition Yposition Zposition Zrotation Xrotation Yrotation
          JOINT LeftElbow
          {
            OFFSET 0 -12.08 0
            CHANNELS 6 Xposition Yposition Zposition Zrotation Xrotation Yrotation
            JOINT LeftWrist
            {
              OFFSET 0 -9.82 0
              CHANNELS 6 Xposition Yposition Zposition Zrotation Xrotation Yrotation
              End Site
              {
                OFFSET 0 -7.37 0
              }
            }
          }
        }
      }
      JOINT RightCollar
      {
        OFFSET -1.06 4.19 1.76
        CHANNELS 6 Xposition Yposition Zposition Zrotation Xrotation Yrotation
        JOINT RightShoulder
        {
          OFFSET -6.06 0 0
          CHANNELS 6 Xposition Yposition Zposition Zrotation Xrotation Yrotation
          JOINT RightElbow
          {
            OFFSET 0 -11.08 0
            CHANNELS 6 Xposition Yposition Zposition Zrotation Xrotation Yrotation
            JOINT RightWrist
            {
              OFFSET 0 -9.82 0
              CHANNELS 6 Xposition Yposition Zposition Zrotation Xrotation Yrotation
              End Site
              {
                OFFSET 0 -7.14001 0
              }
            }
          }
        }
      }
      JOINT Neck
      {
        OFFSET 0 4.05 0
        CHANNELS 6 Xposition Yposition Zposition Zrotation Xrotation Yrotation
        JOINT Head
        {
          OFFSET 0 5.19 0
          CHANNELS 6 Xposition Yposition Zposition Zrotation Xrotation Yrotation
          End Site
          {
            OFFSET 0 4.14001 0
          }
        }
      }
    }
  }
}
MOTION
Frames:	9
Frame Time:	0.0333333
-124.564 38.9536 -138.547 -4.7529 -24.1364 -108.371 3.43 -7.10543e-015 -2.13163e-014 1.83864 -16.8631 14.8966 6.12843e-014 -18.47 7.10543e-014 28.8417 69.0389 -27.8531 1.63425e-013 -17.95 4.61853e-013 -3.16898 -21.6855 -0.800354 -3.43 -5.68434e-014 7.10543e-015 -37.3416 -27.1294 -20.272 5.32907e-014 -18.47 -1.06581e-014 14.6798 45.0219 -0.962838 3.12639e-013 -17.95 0 -0.146699 -5.43031 0.292232 0 4.57 -4.26326e-014 -65.0218 38.4899 -8.93672 -3.10862e-015 6.57 -3.55271e-015 40.9035 -44.7947 -19.3262 1.06 4.19 1.76 -51.0013 -2.20397 4.97098 5.81 1.42109e-014 -1.42109e-014 -52.0423 41.4061 14.7022 1.43174e-012 -12.08 -1.53477e-012 113.271 -2.54287 49.3974 2.73772e-011 -9.82 -4.78302e-011 -4.57766e-009 5.6624e-009 1.01518e-009 -1.06 4.19 1.76 7.52769 2.31047 35.4682 -6.06 7.10543e-014 2.84217e-014 18.5068 28.1751 -12.9088 1.53833e-012 -11.08 3.13705e-012 -29.2775 -13.6492 -4.31367 3.7133e-011 -9.82 6.74127e-011 -1.88015e-009 2.35359e-009 -2.76989e-009 -1.08802e-014 4.05 0 -3.48082 45.4014 35.5875 -3.90799e-014 5.19 -1.42109e-014 -16.725 -37.9887 36.1996 
-124.08 38.2669 -136.946 -6.07144 -16.1406 -122.523 3.43 -7.10543e-015 -2.13163e-014 -1.86186 -2.98415 7.61988 6.12843e-014 -18.47 7.10543e-014 22.3249 61.8241 -18.5412 1.63425e-013 -17.95 4.61853e-013 -2.58916 -17.1846 -0.557232 -3.43 -5.68434e-014 7.10543e-015 -24.2101 -33.7532 -7.67911 5.32907e-014 -18.47 -1.06581e-014 8.50109 46.8669 1.14023 3.12639e-013 -17.95 0 -1.07379 -7.45557 0.358418 0 4.57 -4.26326e-014 -50.2256 15.2959 -4.3229 -3.10862e-015 6.57 -3.55271e-015 30.6337 -17.7233 -14.3776 1.06 4.19 1.76 -46.6722 2.12799 -4.42412 5.81 1.42109e-014 -1.42109e-014 -22.8902 58.0571 -20.7427 1.43174e-012 -12.08 -1.53477e-012 112.697 -2.80218 49.2122 2.73772e-011 -9.82 -4.78302e-011 -4.57766e-009 5.6624e-009 1.01518e-009 -1.06 4.19 1.76 7.26173 1.27478 19.4677 -6.06 7.10543e-014 2.84217e-014 20.3167 34.0968 4.49875 1.53833e-012 -11.08 3.13705e-012 -37.9924 -16.9185 -6.81409 3.7133e-011 -9.82 6.74127e-011 -1.88015e-009 2.35359e-009 -2.76989e-009 -1.08802e-014 4.05 0 -3.35455 35.0357 20.6915 -3.90799e-014 5.19 -1.42109e-014 -12.081 -42.0423 19.07 
-122.591 38.5991 -134.189 -1.28702 -9.15509 -133.811 3.43 -7.10543e-015 -2.13163e-014 0.765765 1.68972 6.34577 6.12843e-014 -18.47 7.10543e-014 5.44807 56.0336 -6.06973 1.63425e-013 -17.95 4.61853e-013 -0.824647 -11.9898 -0.323347 -3.43 -5.68434e-014 7.10543e-015 -6.41367 -34.8204 7.10436 5.32907e-014 -18.47 -1.06581e-014 -1.01751 33.5507 2.76064 3.12639e-013 -17.95 0 -0.29442 -9.54902 0.31856 0 4.57 -4.26326e-014 -23.2032 2.34272 -3.80425 -3.10862e-015 6.57 -3.55271e-015 10.4042 -0.760531 -7.45061 1.06 4.19 1.76 -33.5696 3.17274 -9.81582 5.81 1.42109e-014 -1.42109e-014 18.2185 46.0166 -55.8405 1.43174e-012 -12.08 -1.53477e-012 102.05 -7.04889 45.372 2.73772e-011 -9.82 -4.78302e-011 -4.57766e-009 5.6624e-009 1.01518e-009 -1.06 4.19 1.76 14.0941 1.05099 6.86136 -6.06 7.10543e-014 2.84217e-014 15.8936 36.2096 17.6794 1.53833e-012 -11.08 3.13705e-012 -40.163 -17.6533 -7.51321 3.7133e-011 -9.82 6.74127e-011 -1.88015e-009 2.35359e-009 -2.76989e-009 -1.08802e-014 4.05 0 2.68955 29.3897 7.70739 -3.90799e-014 5.19 -1.42109e-014 -8.15946 -39.084 8.74345 
-119.847 38.7145 -130.539 1.25265 -10.116 -136.221 3.43 -7.10543e-015 -2.13163e-014 -1.26374 -5.2694 3.0531 6.12843e-014 -18.47 7.10543e-014 -0.846847 55.3471 -2.69764 1.63425e-013 -17.95 4.61853e-013 -0.374071 -9.59594 -0.263297 -3.43 -5.68434e-014 7.10543e-015 -5.79146 -35.5944 5.96606 5.32907e-014 -18.47 -1.06581e-014 -3.04458 19.8931 1.2602 3.12639e-013 -17.95 0 0.794555 -9.11077 0.258992 0 4.57 -4.26326e-014 -15.5433 2.18224 -3.38498 -3.10862e-015 6.57 -3.55271e-015 4.38598 5.74457 -4.46721 1.06 4.19 1.76 -30.8412 2.29592 -7.6549 5.81 1.42109e-014 -1.42109e-014 36.0535 19.6816 -63.0881 1.43174e-012 -12.08 -1.53477e-012 86.3664 -11.6578 38.6611 2.73772e-011 -9.82 -4.78302e-011 -4.57766e-009 5.6624e-009 1.01518e-009 -1.06 4.19 1.76 14.8832 0.356154 0.74129 -6.06 7.10543e-014 2.84217e-014 5.30545 35.4009 40.3086 1.53833e-012 -11.08 3.13705e-012 -39.8215 -17.543 -7.39663 3.7133e-011 -9.82 6.74127e-011 -1.88015e-009 2.35359e-009 -2.76989e-009 -1.08802e-014 4.05 0 4.35808 8.17213 6.71727 -3.90799e-014 5.19 -1.42109e-014 -4.52238 -24.8933 8.52804 
-117.369 38.8466 -127.656 1.85835 -10.5346 -137.519 3.43 -7.10543e-015 -2.13163e-014 -2.81992 -9.48339 2.30344 6.12843e-014 -18.47 7.10543e-014 -1.59599 52.3772 -2.47807 1.63425e-013 -17.95 4.61853e-013 -0.371697 -9.54845 -0.258459 -3.43 -5.68434e-014 7.10543e-015 -5.92131 -38.4087 6.44064 5.32907e-014 -18.47 -1.06581e-014 -1.72461 24.0854 1.0465 3.12639e-013 -17.95 0 1.07747 -8.6611 0.236374 0 4.57 -4.26326e-014 -12.2973 6.18276 -2.56279 -3.10862e-015 6.57 -3.55271e-015 -0.60651 2.67977 -2.47955 1.06 4.19 1.76 -26.7824 1.60407 -6.0712 5.81 1.42109e-014 -1.42109e-014 39.3063 10.6982 -65.9101 1.43174e-012 -12.08 -1.53477e-012 77.089 -13.4122 34.2859 2.73772e-011 -9.82 -4.78302e-011 -4.57766e-009 5.6624e-009 1.01518e-009 -1.06 4.19 1.76 18.7416 -0.297353 -3.85727 -6.06 7.10543e-014 2.84217e-014 -0.325251 33.3479 49.8044 1.53833e-012 -11.08 3.13705e-012 -43.1029 -18.6073 -8.4873 3.7133e-011 -9.82 6.74127e-011 -1.88015e-009 2.35359e-009 -2.76989e-009 -1.08802e-014 4.05 0 5.61087 -2.78054 5.39124 -3.90799e-014 5.19 -1.42109e-014 -3.58526 -16.9484 7.18787 
-114.789 38.5137 -124.885 3.13552 -8.41313 -140.016 3.43 -7.10543e-015 -2.13163e-014 -1.69077 -14.6661 2.02601 6.12843e-014 -18.47 7.10543e-014 -2.22382 52.8404 -1.77959 1.63425e-013 -17.95 4.61853e-013 -0.621426 -9.33596 -0.257574 -3.43 -5.68434e-014 7.10543e-015 -1.22755 -41.738 11.5029 5.32907e-014 -18.47 -1.06581e-014 1.56868 42.2776 0.355687 3.12639e-013 -17.95 0 1.37846 -8.75116 0.235899 0 4.57 -4.26326e-014 -9.77721 9.42219 -0.645221 -3.10862e-015 6.57 -3.55271e-015 1.29497 1.69408 -1.19909 1.06 4.19 1.76 -31.2481 1.45777 -4.62534 5.81 1.42109e-014 -1.42109e-014 38.0413 11.5521 -65.0966 1.43174e-012 -12.08 -1.53477e-012 72.3224 -14.0296 31.9629 2.73772e-011 -9.82 -4.78302e-011 -4.57766e-009 5.6624e-009 1.01518e-009 -1.06 4.19 1.76 17.8438 -0.154985 -3.04225 -6.06 7.10543e-014 2.84217e-014 -5.83639 30.3776 58.14 1.53833e-012 -11.08 3.13705e-012 -47.3752 -19.8825 -9.98891 3.7133e-011 -9.82 6.74127e-011 -1.88015e-009 2.35359e-009 -2.76989e-009 -1.08802e-014 4.05 0 -4.86868 -5.86709 6.28805 -3.90799e-014 5.19 -1.42109e-014 3.24364 -15.775 4.6715 
-112.708 37.8544 -122.038 2.4574 -5.20087 -143.459 3.43 -7.10543e-015 -2.13163e-014 -1.71275 -17.3764 2.05553 6.12843e-014 -18.47 7.10543e-014 -3.76088 53.6138 -0.626055 1.63425e-013 -17.95 4.61853e-013 -0.775811 -8.88163 -0.242878 -3.43 -5.68434e-014 7.10543e-015 0.377362 -40.2866 12.9046 5.32907e-014 -18.47 -1.06581e-014 7.81692 60.0291 -3.12967 3.12639e-013 -17.95 0 1.56433 -8.43829 0.22362 0 4.57 -4.26326e-014 -5.3166 11.9653 0.376003 -3.10862e-015 6.57 -3.55271e-015 -2.01055 1.93656 0.386879 1.06 4.19 1.76 -30.5609 1.40624 -4.55642 5.81 1.42109e-014 -1.42109e-014 34.7178 16.4965 -62.5078 1.43174e-012 -12.08 -1.53477e-012 66.9894 -14.4921 29.3242 2.73772e-011 -9.82 -4.78302e-011 -4.57766e-009 5.6624e-009 1.01518e-009 -1.06 4.19 1.76 17.2946 -0.0607667 -2.44922 -6.06 7.10543e-014 2.84217e-014 -10.9471 25.6848 66.5926 1.53833e-012 -11.08 3.13705e-012 -48.9871 -20.3306 -10.5777 3.7133e-011 -9.82 6.74127e-011 -1.88015e-009 2.35359e-009 -2.76989e-009 -1.08802e-014 4.05 0 2.25938 -3.66589 6.98984 -3.90799e-014 5.19 -1.42109e-014 -2.78523 -15.4335 7.78226 
-110.269 36.7023 -119.402 1.90902 -2.40315 -144.866 3.43 -7.10543e-015 -2.13163e-014 -0.363517 -22.0621 2.13141 6.12843e-014 -18.47 7.10543e-014 -5.12689 58.8101 0.213134 1.63425e-013 -17.95 4.61853e-013 -0.835927 -8.65564 -0.231789 -3.43 -5.68434e-014 7.10543e-015 0.779803 -37.5858 13.0582 5.32907e-014 -18.47 -1.06581e-014 25.612 75.676 -18.0543 3.12639e-013 -17.95 0 1.94894 -7.37425 0.18168 0 4.57 -4.26326e-014 -4.29191 13.9679 1.75587 -3.10862e-015 6.57 -3.55271e-015 -0.163133 2.31308 1.33925 1.06 4.19 1.76 -36.1652 1.25493 -3.31482 5.81 1.42109e-014 -1.42109e-014 32.2812 19.2154 -55.8174 1.43174e-012 -12.08 -1.53477e-012 60.0717 -14.7333 25.867 2.73772e-011 -9.82 -4.78302e-011 -4.57766e-009 5.6624e-009 1.01518e-009 -1.06 4.19 1.76 15.4164 0.0761101 -1.53266 -6.06 7.10543e-014 2.84217e-014 -15.2259 19.562 71.7356 1.53833e-012 -11.08 3.13705e-012 -50.5883 -20.7577 -11.1738 3.7133e-011 -9.82 6.74127e-011 -1.88015e-009 2.35359e-009 -2.76989e-009 -1.08802e-014 4.05 0 -0.0057491 -3.76545 7.66487 -3.90799e-014 5.19 -1.42109e-014 -2.35099 -14.9643 7.80455 
-107.923 35.8704 -116.729 1.78057 -1.96835 -146.091 3.43 -7.10543e-015 -2.13163e-014 0.230187 -27.1414 1.51325 6.12843e-014 -18.47 7.10543e-014 -6.12992 59.5371 0.859421 1.63425e-013 -17.95 4.61853e-013 -0.875064 -7.87219 -0.205132 -3.43 -5.68434e-014 7.10543e-015 -0.800199 -33.6712 11.9387 5.32907e-014 -18.47 -1.06581e-014 71.6516 83.3991 -63.1782 3.12639e-013 -17.95 0 2.2858 -6.55047 0.145018 0 4.57 -4.26326e-014 -2.90052 13.1014 2.09614 -3.10862e-015 6.57 -3.55271e-015 -2.42061 3.14015 2.42842 1.06 4.19 1.76 -33.949 1.25987 -3.58159 5.81 1.42109e-014 -1.42109e-014 28.1344 24.8213 -49.3912 1.43174e-012 -12.08 -1.53477e-012 53.0521 -14.5645 22.3554 2.73772e-011 -9.82 -4.78302e-011 -4.57766e-009 5.6624e-009 1.01518e-009 -1.06 4.19 1.76 15.5366 0.0954795 -1.37925 -6.06 7.10543e-014 2.84217e-014 -17.5712 11.7789 76.5746 1.53833e-012 -11.08 3.13705e-012 -47.2223 -19.8373 -9.93661 3.7133e-011 -9.82 6.74127e-011 -1.88015e-009 2.35359e-009 -2.76989e-009 -1.08802e-014 4.05 0 4.05468 -6.42509 6.88102 -3.90799e-014 5.19 -1.42109e-014 -4.26112 -11.6842 8.27531 
